<?xml version="1.0" encoding="UTF-8"?>
<svg xmlns="http://www.w3.org/2000/svg" width="100" height="100" viewBox="0 0 100 100">
<style>
.grid-minor { stroke: #777; stroke-opacity: 0.12; stroke-width: 0.25; }
.grid-major { stroke: #555; stroke-opacity: 0.2; stroke-width: 0.5; }
.route { fill: none; stroke-linecap: round; stroke-linejoin: round; }
.interchange { fill: white; stroke: #111; stroke-width: 0.3; }
.label { font: 0.8px sans-serif; fill: #111; dominant-baseline: middle; }
</style>
<rect width="100" height="100" fill="#f7f5ef"/>
<g class="coordinate-grid">
<line class="grid-major" x1="0" y1="0" x2="0" y2="100"/>
<line class="grid-minor" x1="1" y1="0" x2="1" y2="100"/>
<line class="grid-minor" x1="2" y1="0" x2="2" y2="100"/>
<line class="grid-minor" x1="3" y1="0" x2="3" y2="100"/>
<line class="grid-minor" x1="4" y1="0" x2="4" y2="100"/>
<line class="grid-minor" x1="5" y1="0" x2="5" y2="100"/>
<line class="grid-minor" x1="6" y1="0" x2="6" y2="100"/>
<line class="grid-minor" x1="7" y1="0" x2="7" y2="100"/>
<line class="grid-minor" x1="8" y1="0" x2="8" y2="100"/>
<line class="grid-minor" x1="9" y1="0" x2="9" y2="100"/>
<line class="grid-major" x1="10" y1="0" x2="10" y2="100"/>
<line class="grid-minor" x1="11" y1="0" x2="11" y2="100"/>
<line class="grid-minor" x1="12" y1="0" x2="12" y2="100"/>
<line class="grid-minor" x1="13" y1="0" x2="13" y2="100"/>
<line class="grid-minor" x1="14" y1="0" x2="14" y2="100"/>
<line class="grid-minor" x1="15" y1="0" x2="15" y2="100"/>
<line class="grid-minor" x1="16" y1="0" x2="16" y2="100"/>
<line class="grid-minor" x1="17" y1="0" x2="17" y2="100"/>
<line class="grid-minor" x1="18" y1="0" x2="18" y2="100"/>
<line class="grid-minor" x1="19" y1="0" x2="19" y2="100"/>
<line class="grid-major" x1="20" y1="0" x2="20" y2="100"/>
<line class="grid-minor" x1="21" y1="0" x2="21" y2="100"/>
<line class="grid-minor" x1="22" y1="0" x2="22" y2="100"/>
<line class="grid-minor" x1="23" y1="0" x2="23" y2="100"/>
<line class="grid-minor" x1="24" y1="0" x2="24" y2="100"/>
<line class="grid-minor" x1="25" y1="0" x2="25" y2="100"/>
<line class="grid-minor" x1="26" y1="0" x2="26" y2="100"/>
<line class="grid-minor" x1="27" y1="0" x2="27" y2="100"/>
<line class="grid-minor" x1="28" y1="0" x2="28" y2="100"/>
<line class="grid-minor" x1="29" y1="0" x2="29" y2="100"/>
<line class="grid-major" x1="30" y1="0" x2="30" y2="100"/>
<line class="grid-minor" x1="31" y1="0" x2="31" y2="100"/>
<line class="grid-minor" x1="32" y1="0" x2="32" y2="100"/>
<line class="grid-minor" x1="33" y1="0" x2="33" y2="100"/>
<line class="grid-minor" x1="34" y1="0" x2="34" y2="100"/>
<line class="grid-minor" x1="35" y1="0" x2="35" y2="100"/>
<line class="grid-minor" x1="36" y1="0" x2="36" y2="100"/>
<line class="grid-minor" x1="37" y1="0" x2="37" y2="100"/>
<line class="grid-minor" x1="38" y1="0" x2="38" y2="100"/>
<line class="grid-minor" x1="39" y1="0" x2="39" y2="100"/>
<line class="grid-major" x1="40" y1="0" x2="40" y2="100"/>
<line class="grid-minor" x1="41" y1="0" x2="41" y2="100"/>
<line class="grid-minor" x1="42" y1="0" x2="42" y2="100"/>
<line class="grid-minor" x1="43" y1="0" x2="43" y2="100"/>
<line class="grid-minor" x1="44" y1="0" x2="44" y2="100"/>
<line class="grid-minor" x1="45" y1="0" x2="45" y2="100"/>
<line class="grid-minor" x1="46" y1="0" x2="46" y2="100"/>
<line class="grid-minor" x1="47" y1="0" x2="47" y2="100"/>
<line class="grid-minor" x1="48" y1="0" x2="48" y2="100"/>
<line class="grid-minor" x1="49" y1="0" x2="49" y2="100"/>
<line class="grid-major" x1="50" y1="0" x2="50" y2="100"/>
<line class="grid-minor" x1="51" y1="0" x2="51" y2="100"/>
<line class="grid-minor" x1="52" y1="0" x2="52" y2="100"/>
<line class="grid-minor" x1="53" y1="0" x2="53" y2="100"/>
<line class="grid-minor" x1="54" y1="0" x2="54" y2="100"/>
<line class="grid-minor" x1="55" y1="0" x2="55" y2="100"/>
<line class="grid-minor" x1="56" y1="0" x2="56" y2="100"/>
<line class="grid-minor" x1="57" y1="0" x2="57" y2="100"/>
<line class="grid-minor" x1="58" y1="0" x2="58" y2="100"/>
<line class="grid-minor" x1="59" y1="0" x2="59" y2="100"/>
<line class="grid-major" x1="60" y1="0" x2="60" y2="100"/>
<line class="grid-minor" x1="61" y1="0" x2="61" y2="100"/>
<line class="grid-minor" x1="62" y1="0" x2="62" y2="100"/>
<line class="grid-minor" x1="63" y1="0" x2="63" y2="100"/>
<line class="grid-minor" x1="64" y1="0" x2="64" y2="100"/>
<line class="grid-minor" x1="65" y1="0" x2="65" y2="100"/>
<line class="grid-minor" x1="66" y1="0" x2="66" y2="100"/>
<line class="grid-minor" x1="67" y1="0" x2="67" y2="100"/>
<line class="grid-minor" x1="68" y1="0" x2="68" y2="100"/>
<line class="grid-minor" x1="69" y1="0" x2="69" y2="100"/>
<line class="grid-major" x1="70" y1="0" x2="70" y2="100"/>
<line class="grid-minor" x1="71" y1="0" x2="71" y2="100"/>
<line class="grid-minor" x1="72" y1="0" x2="72" y2="100"/>
<line class="grid-minor" x1="73" y1="0" x2="73" y2="100"/>
<line class="grid-minor" x1="74" y1="0" x2="74" y2="100"/>
<line class="grid-minor" x1="75" y1="0" x2="75" y2="100"/>
<line class="grid-minor" x1="76" y1="0" x2="76" y2="100"/>
<line class="grid-minor" x1="77" y1="0" x2="77" y2="100"/>
<line class="grid-minor" x1="78" y1="0" x2="78" y2="100"/>
<line class="grid-minor" x1="79" y1="0" x2="79" y2="100"/>
<line class="grid-major" x1="80" y1="0" x2="80" y2="100"/>
<line class="grid-minor" x1="81" y1="0" x2="81" y2="100"/>
<line class="grid-minor" x1="82" y1="0" x2="82" y2="100"/>
<line class="grid-minor" x1="83" y1="0" x2="83" y2="100"/>
<line class="grid-minor" x1="84" y1="0" x2="84" y2="100"/>
<line class="grid-minor" x1="85" y1="0" x2="85" y2="100"/>
<line class="grid-minor" x1="86" y1="0" x2="86" y2="100"/>
<line class="grid-minor" x1="87" y1="0" x2="87" y2="100"/>
<line class="grid-minor" x1="88" y1="0" x2="88" y2="100"/>
<line class="grid-minor" x1="89" y1="0" x2="89" y2="100"/>
<line class="grid-major" x1="90" y1="0" x2="90" y2="100"/>
<line class="grid-minor" x1="91" y1="0" x2="91" y2="100"/>
<line class="grid-minor" x1="92" y1="0" x2="92" y2="100"/>
<line class="grid-minor" x1="93" y1="0" x2="93" y2="100"/>
<line class="grid-minor" x1="94" y1="0" x2="94" y2="100"/>
<line class="grid-minor" x1="95" y1="0" x2="95" y2="100"/>
<line class="grid-minor" x1="96" y1="0" x2="96" y2="100"/>
<line class="grid-minor" x1="97" y1="0" x2="97" y2="100"/>
<line class="grid-minor" x1="98" y1="0" x2="98" y2="100"/>
<line class="grid-minor" x1="99" y1="0" x2="99" y2="100"/>
<line class="grid-major" x1="100" y1="0" x2="100" y2="100"/>
<line class="grid-major" x1="0" y1="0" x2="100" y2="0"/>
<line class="grid-minor" x1="0" y1="1" x2="100" y2="1"/>
<line class="grid-minor" x1="0" y1="2" x2="100" y2="2"/>
<line class="grid-minor" x1="0" y1="3" x2="100" y2="3"/>
<line class="grid-minor" x1="0" y1="4" x2="100" y2="4"/>
<line class="grid-minor" x1="0" y1="5" x2="100" y2="5"/>
<line class="grid-minor" x1="0" y1="6" x2="100" y2="6"/>
<line class="grid-minor" x1="0" y1="7" x2="100" y2="7"/>
<line class="grid-minor" x1="0" y1="8" x2="100" y2="8"/>
<line class="grid-minor" x1="0" y1="9" x2="100" y2="9"/>
<line class="grid-major" x1="0" y1="10" x2="100" y2="10"/>
<line class="grid-minor" x1="0" y1="11" x2="100" y2="11"/>
<line class="grid-minor" x1="0" y1="12" x2="100" y2="12"/>
<line class="grid-minor" x1="0" y1="13" x2="100" y2="13"/>
<line class="grid-minor" x1="0" y1="14" x2="100" y2="14"/>
<line class="grid-minor" x1="0" y1="15" x2="100" y2="15"/>
<line class="grid-minor" x1="0" y1="16" x2="100" y2="16"/>
<line class="grid-minor" x1="0" y1="17" x2="100" y2="17"/>
<line class="grid-minor" x1="0" y1="18" x2="100" y2="18"/>
<line class="grid-minor" x1="0" y1="19" x2="100" y2="19"/>
<line class="grid-major" x1="0" y1="20" x2="100" y2="20"/>
<line class="grid-minor" x1="0" y1="21" x2="100" y2="21"/>
<line class="grid-minor" x1="0" y1="22" x2="100" y2="22"/>
<line class="grid-minor" x1="0" y1="23" x2="100" y2="23"/>
<line class="grid-minor" x1="0" y1="24" x2="100" y2="24"/>
<line class="grid-minor" x1="0" y1="25" x2="100" y2="25"/>
<line class="grid-minor" x1="0" y1="26" x2="100" y2="26"/>
<line class="grid-minor" x1="0" y1="27" x2="100" y2="27"/>
<line class="grid-minor" x1="0" y1="28" x2="100" y2="28"/>
<line class="grid-minor" x1="0" y1="29" x2="100" y2="29"/>
<line class="grid-major" x1="0" y1="30" x2="100" y2="30"/>
<line class="grid-minor" x1="0" y1="31" x2="100" y2="31"/>
<line class="grid-minor" x1="0" y1="32" x2="100" y2="32"/>
<line class="grid-minor" x1="0" y1="33" x2="100" y2="33"/>
<line class="grid-minor" x1="0" y1="34" x2="100" y2="34"/>
<line class="grid-minor" x1="0" y1="35" x2="100" y2="35"/>
<line class="grid-minor" x1="0" y1="36" x2="100" y2="36"/>
<line class="grid-minor" x1="0" y1="37" x2="100" y2="37"/>
<line class="grid-minor" x1="0" y1="38" x2="100" y2="38"/>
<line class="grid-minor" x1="0" y1="39" x2="100" y2="39"/>
<line class="grid-major" x1="0" y1="40" x2="100" y2="40"/>
<line class="grid-minor" x1="0" y1="41" x2="100" y2="41"/>
<line class="grid-minor" x1="0" y1="42" x2="100" y2="42"/>
<line class="grid-minor" x1="0" y1="43" x2="100" y2="43"/>
<line class="grid-minor" x1="0" y1="44" x2="100" y2="44"/>
<line class="grid-minor" x1="0" y1="45" x2="100" y2="45"/>
<line class="grid-minor" x1="0" y1="46" x2="100" y2="46"/>
<line class="grid-minor" x1="0" y1="47" x2="100" y2="47"/>
<line class="grid-minor" x1="0" y1="48" x2="100" y2="48"/>
<line class="grid-minor" x1="0" y1="49" x2="100" y2="49"/>
<line class="grid-major" x1="0" y1="50" x2="100" y2="50"/>
<line class="grid-minor" x1="0" y1="51" x2="100" y2="51"/>
<line class="grid-minor" x1="0" y1="52" x2="100" y2="52"/>
<line class="grid-minor" x1="0" y1="53" x2="100" y2="53"/>
<line class="grid-minor" x1="0" y1="54" x2="100" y2="54"/>
<line class="grid-minor" x1="0" y1="55" x2="100" y2="55"/>
<line class="grid-minor" x1="0" y1="56" x2="100" y2="56"/>
<line class="grid-minor" x1="0" y1="57" x2="100" y2="57"/>
<line class="grid-minor" x1="0" y1="58" x2="100" y2="58"/>
<line class="grid-minor" x1="0" y1="59" x2="100" y2="59"/>
<line class="grid-major" x1="0" y1="60" x2="100" y2="60"/>
<line class="grid-minor" x1="0" y1="61" x2="100" y2="61"/>
<line class="grid-minor" x1="0" y1="62" x2="100" y2="62"/>
<line class="grid-minor" x1="0" y1="63" x2="100" y2="63"/>
<line class="grid-minor" x1="0" y1="64" x2="100" y2="64"/>
<line class="grid-minor" x1="0" y1="65" x2="100" y2="65"/>
<line class="grid-minor" x1="0" y1="66" x2="100" y2="66"/>
<line class="grid-minor" x1="0" y1="67" x2="100" y2="67"/>
<line class="grid-minor" x1="0" y1="68" x2="100" y2="68"/>
<line class="grid-minor" x1="0" y1="69" x2="100" y2="69"/>
<line class="grid-major" x1="0" y1="70" x2="100" y2="70"/>
<line class="grid-minor" x1="0" y1="71" x2="100" y2="71"/>
<line class="grid-minor" x1="0" y1="72" x2="100" y2="72"/>
<line class="grid-minor" x1="0" y1="73" x2="100" y2="73"/>
<line class="grid-minor" x1="0" y1="74" x2="100" y2="74"/>
<line class="grid-minor" x1="0" y1="75" x2="100" y2="75"/>
<line class="grid-minor" x1="0" y1="76" x2="100" y2="76"/>
<line class="grid-minor" x1="0" y1="77" x2="100" y2="77"/>
<line class="grid-minor" x1="0" y1="78" x2="100" y2="78"/>
<line class="grid-minor" x1="0" y1="79" x2="100" y2="79"/>
<line class="grid-major" x1="0" y1="80" x2="100" y2="80"/>
<line class="grid-minor" x1="0" y1="81" x2="100" y2="81"/>
<line class="grid-minor" x1="0" y1="82" x2="100" y2="82"/>
<line class="grid-minor" x1="0" y1="83" x2="100" y2="83"/>
<line class="grid-minor" x1="0" y1="84" x2="100" y2="84"/>
<line class="grid-minor" x1="0" y1="85" x2="100" y2="85"/>
<line class="grid-minor" x1="0" y1="86" x2="100" y2="86"/>
<line class="grid-minor" x1="0" y1="87" x2="100" y2="87"/>
<line class="grid-minor" x1="0" y1="88" x2="100" y2="88"/>
<line class="grid-minor" x1="0" y1="89" x2="100" y2="89"/>
<line class="grid-major" x1="0" y1="90" x2="100" y2="90"/>
<line class="grid-minor" x1="0" y1="91" x2="100" y2="91"/>
<line class="grid-minor" x1="0" y1="92" x2="100" y2="92"/>
<line class="grid-minor" x1="0" y1="93" x2="100" y2="93"/>
<line class="grid-minor" x1="0" y1="94" x2="100" y2="94"/>
<line class="grid-minor" x1="0" y1="95" x2="100" y2="95"/>
<line class="grid-minor" x1="0" y1="96" x2="100" y2="96"/>
<line class="grid-minor" x1="0" y1="97" x2="100" y2="97"/>
<line class="grid-minor" x1="0" y1="98" x2="100" y2="98"/>
<line class="grid-minor" x1="0" y1="99" x2="100" y2="99"/>
<line class="grid-major" x1="0" y1="100" x2="100" y2="100"/>
</g>
<polyline class="route" points="85,73 84,72 81,70 78,64 78,61 77,52 73,49 68,42 60,39 56,38 47,37 36,36 33,35 25,32 26,30 26,28 16,26 14,24" stroke="#0070a8" stroke-width="0.65"/>
<polyline class="route" points="88,56 87,58 87,60 86,59 85,55 83,51 83,41 81,38 77,52 72,55 57,45 68,42 60,39 56,38 47,37 40,32 25,32 19,31 15,29 12,27 13,25 14,24" stroke="#ffd400" stroke-width="0.65"/>
<polyline class="route" points="85,73 84,72 81,70 75,71 72,74 76,70 70,67 66,66 61,66 49,63 36,57 38,51 37,48 39,47 38,45 36,36 40,32 40,30 42,26 50,24 62,22 69,21 76,20 79,18 82,17" stroke="#8a0f45" stroke-width="0.65"/>
<polyline class="route" points="42,26 40,30 40,32 36,36 30,43 20,46 17,49 17,62 23,64 27,68 22,74 32,76 35,77 41,78 45,79 48,80 49,81 45,83 43,83 47,84 53,85 55,85 64,86 65,87 66,87 63,88" stroke="#f57c00" stroke-width="0.65"/>
<polyline class="route" points="74,40 71,43 68,42 60,39 56,38 47,37 40,32 40,30 42,26 44,23 43,22 46,19 54,19 51,17 58,16 60,15 59,15 55,14 53,13 52,13 67,12" stroke="#6f2dbd" stroke-width="0.65"/>
<polyline class="route" points="13,36 15,34 18,33 25,32 24,34 29,40 30,43 28,47 32,50 37,48 38,51 34,53 31,57 22,62 17,62 17,49 13,36" stroke="#72b043" stroke-width="0.65"/>
<polyline class="route" points="85,73 80,82 74,81 70,78 68,76 64,75 62,72 57,69 51,68 30,65 34,60 31,57 28,54 24,53 20,46 19,44 25,32 21,28 12,27 13,25 14,24 16,26" stroke="#006b3f" stroke-width="0.65"/>
<text class="label" x="34.75" y="52.25">Anderson Flat</text>
<text class="label" x="83.75" y="50.25">Arangala Junction</text>
<text class="label" x="38.75" y="44.25">Army Hospital Borella</text>
<text class="label" x="87.75" y="57.25">Athurugiriya Hospital</text>
<text class="label" x="87.75" y="59.25">Athurugiriya Town</text>
<circle class="interchange" cx="17" cy="49" r="0.6"/>
<text class="label" x="17.75" y="48.25">Bambalapitiya</text>
<text class="label" x="71.75" y="42.25">Battaramulla Junction</text>
<text class="label" x="62.75" y="71.25">Boralesgamuwa</text>
<circle class="interchange" cx="40" cy="32" r="0.6"/>
<text class="label" x="40.75" y="31.25">Borella</text>
<text class="label" x="28.75" y="53.25">BRC Junction</text>
<text class="label" x="19.75" y="43.25">Bus Stop Infront of Colombo</text>
<circle class="interchange" cx="40" cy="30" r="0.6"/>
<text class="label" x="40.75" y="29.25">Campbell Park</text>
<text class="label" x="72.75" y="73.25">Cancer Hospital Bus Stop 01</text>
<circle class="interchange" cx="47" cy="37" r="0.6"/>
<text class="label" x="47.75" y="36.25">Castle Hospital</text>
<circle class="interchange" cx="14" cy="24" r="0.6"/>
<text class="label" x="14.75" y="23.25">Colombo Fort</text>
<text class="label" x="52.75" y="12.25">CTB Junction</text>
<text class="label" x="27.75" y="67.25">Dehiwala</text>
<text class="label" x="61.75" y="65.25">Delkanda Junction</text>
<circle class="interchange" cx="42" cy="26" r="0.6"/>
<text class="label" x="42.75" y="25.25">Dematagoda</text>
<text class="label" x="53.75" y="84.25">Egoda Uyana</text>
<text class="label" x="67.75" y="11.25">Ekala</text>
<text class="label" x="21.75" y="27.25">Gamini Hall</text>
<text class="label" x="48.75" y="79.25">German Tec Angulana</text>
<text class="label" x="45.75" y="78.25">Golumadama Junction</text>
<circle class="interchange" cx="31" cy="57" r="0.6"/>
<text class="label" x="31.75" y="56.25">Havelock</text>
<text class="label" x="26.75" y="29.25">Hedges Ct</text>
<text class="label" x="46.75" y="18.25">Hekitta Junction</text>
<text class="label" x="51.75" y="16.25">Hendala</text>
<text class="label" x="32.75" y="49.25">Hirdaramani</text>
<text class="label" x="85.75" y="54.25">Hokandara Junction</text>
<circle class="interchange" cx="30" cy="43" r="0.6"/>
<text class="label" x="30.75" y="42.25">Independence Arcade</text>
<text class="label" x="29.75" y="39.25">Independence Square</text>
<circle class="interchange" cx="77" cy="52" r="0.6"/>
<text class="label" x="77.75" y="51.25">Isurupaya</text>
<text class="label" x="53.75" y="12.25">Ja Ela</text>
<text class="label" x="28.75" y="46.25">Jawatta Road</text>
<text class="label" x="55.75" y="84.25">Jayanthi Mawatha Stop</text>
<text class="label" x="82.75" y="16.25">Kadawatha</text>
<text class="label" x="78.75" y="63.25">Kalalgoda Junction</text>
<text class="label" x="30.75" y="64.25">Kalubowila Hospital Stop</text>
<text class="label" x="59.75" y="14.25">Kandana</text>
<text class="label" x="49.75" y="80.25">Katubedda Junction</text>
<text class="label" x="69.75" y="20.25">Kelaniya Campus</text>
<text class="label" x="80.75" y="81.25">Kesbewa</text>
<text class="label" x="76.75" y="19.25">Kiribathgoda</text>
<text class="label" x="36.75" y="56.25">Kirulapone</text>
<text class="label" x="13.75" y="35.25">Kollupitiya</text>
<text class="label" x="47.75" y="83.25">Koralawella</text>
<text class="label" x="57.75" y="44.25">Koswaththa</text>
<circle class="interchange" cx="84" cy="72" r="0.6"/>
<text class="label" x="84.75" y="71.25">Kottawa</text>
<circle class="interchange" cx="13" cy="25" r="0.6"/>
<text class="label" x="13.75" y="24.25">Lake House Bus Stop</text>
<text class="label" x="70.75" y="77.25">Lanka Fiber Fabrica</text>
<text class="label" x="15.75" y="33.25">Liberty Bus Stop</text>
<text class="label" x="58.75" y="15.25">Mabola</text>
<text class="label" x="60.75" y="14.25">Mahabage</text>
<text class="label" x="65.75" y="86.25">Mahanama Junction</text>
<text class="label" x="79.75" y="17.25">Mahara Junction</text>
<text class="label" x="75.75" y="70.25">Maharagama Cargills Food City</text>
<text class="label" x="76.75" y="69.25">Maharagama</text>
<circle class="interchange" cx="85" cy="73" r="0.6"/>
<text class="label" x="85.75" y="72.25">Makumbura</text>
<text class="label" x="83.75" y="40.25">Malabe Bus Stand</text>
<text class="label" x="35.75" y="76.25">Maliban Junction</text>
<text class="label" x="26.75" y="27.25">Maradana</text>
<text class="label" x="45.75" y="82.25">Mendis Lane Rawathawatta</text>
<text class="label" x="88.75" y="55.25">Millennium City</text>
<text class="label" x="43.75" y="82.25">Moratuwa</text>
<text class="label" x="22.75" y="73.25">Mount Lavinia</text>
<circle class="interchange" cx="60" cy="39" r="0.6"/>
<text class="label" x="60.75" y="38.25">NAITA</text>
<text class="label" x="39.75" y="46.25">Narahenpita Junction</text>
<circle class="interchange" cx="38" cy="51" r="0.6"/>
<text class="label" x="38.75" y="50.25">Narahenpita</text>
<text class="label" x="15.75" y="28.25">Nawaloka Bus Stop</text>
<text class="label" x="70.75" y="66.25">Nawinna</text>
<text class="label" x="32.75" y="75.25">Near Lalanka Head Office</text>
<text class="label" x="24.75" y="33.25">Nelum Pokuna</text>
<text class="label" x="86.75" y="58.25">Nisaco Mall</text>
<text class="label" x="49.75" y="62.25">Nugegoda 01</text>
<text class="label" x="50.75" y="23.25">Orugodawatta</text>
<text class="label" x="64.75" y="85.25">Palam Junction</text>
<text class="label" x="73.75" y="48.25">Palam Thuna Junction</text>
<text class="label" x="66.75" y="86.25">Panadura Base Hospital</text>
<text class="label" x="63.75" y="87.25">Panadura</text>
<circle class="interchange" cx="81" cy="70" r="0.6"/>
<text class="label" x="81.75" y="69.25">Pannipitiya</text>
<text class="label" x="44.75" y="22.25">Peliyagoda (New Kelani Bridge)</text>
<text class="label" x="43.75" y="21.25">Peliyagoda 02</text>
<text class="label" x="51.75" y="67.25">Pepiliyana</text>
<circle class="interchange" cx="16" cy="26" r="0.6"/>
<text class="label" x="16.75" y="25.25">Pettah</text>
<text class="label" x="74.75" y="80.25">Piliyandala Bus Stand Stop</text>
<text class="label" x="18.75" y="32.25">Public Library</text>
<circle class="interchange" cx="56" cy="38" r="0.6"/>
<text class="label" x="56.75" y="37.25">Rajagiriya</text>
<text class="label" x="41.75" y="77.25">Rathmalana Tec</text>
<text class="label" x="57.75" y="68.25">Raththanapitiya</text>
<circle class="interchange" cx="12" cy="27" r="0.6"/>
<text class="label" x="12.75" y="26.25">Regal Cinema</text>
<text class="label" x="34.75" y="59.25">Royal Institute Bus Stop</text>
<circle class="interchange" cx="68" cy="42" r="0.6"/>
<text class="label" x="68.75" y="41.25">Sethsiripaya</text>
<circle class="interchange" cx="36" cy="36" r="0.6"/>
<text class="label" x="36.75" y="35.25">Singer Mega - Colombo 8</text>
<text class="label" x="81.75" y="37.25">Thalahena Junction</text>
<text class="label" x="74.75" y="39.25">Thalangama Depot</text>
<text class="label" x="72.75" y="54.25">Thalangama Junction</text>
<text class="label" x="78.75" y="60.25">Thalawathugoda</text>
<text class="label" x="24.75" y="52.25">Thimbirigasyaya</text>
<text class="label" x="62.75" y="21.25">Thorana Junction</text>
<circle class="interchange" cx="20" cy="46" r="0.6"/>
<text class="label" x="20.75" y="45.25">Thummulla</text>
<circle class="interchange" cx="25" cy="32" r="0.6"/>
<text class="label" x="25.75" y="31.25">Town Hall</text>
<text class="label" x="19.75" y="30.25">Union Place</text>
<circle class="interchange" cx="37" cy="48" r="0.6"/>
<text class="label" x="37.75" y="47.25">VTA / AAT</text>
<text class="label" x="22.75" y="61.25">W.A. Silva Mawatha</text>
<text class="label" x="54.75" y="18.25">Wattala</text>
<text class="label" x="68.75" y="75.25">Weerasinghe Mawatha</text>
<text class="label" x="55.75" y="13.25">Weligampitiya</text>
<circle class="interchange" cx="17" cy="62" r="0.6"/>
<text class="label" x="17.75" y="61.25">Wellawatta</text>
<text class="label" x="64.75" y="74.25">Werahera</text>
<text class="label" x="66.75" y="65.25">Wijerama Junction</text>
<text class="label" x="33.75" y="34.25">Wijerama</text>
<text class="label" x="23.75" y="63.25">William Junction</text>
</svg>
